<svg width="242" height="54" viewBox="0 0 242 54" fill="none" xmlns="http://www.w3.org/2000/svg">
<path d="M15.4908 15.1824C15.4908 19.7669 15.4605 20.2662 15.2184 20.6747C14.1895 22.3694 13.5994 25.0475 13.7205 27.4078C13.9021 30.9786 15.2941 33.9139 18.0176 36.4861C23.4797 41.6608 32.1495 41.1614 37.0669 35.3967L37.8083 34.5343L41.7119 34.5192C44.269 34.5192 45.6005 34.5797 45.6005 34.6705C45.6005 35.0033 44.4657 37.0611 43.5881 38.3472C40.6831 42.614 35.917 45.7157 30.818 46.6841C23.1468 48.1366 15.4908 45.1862 10.8003 38.9827C8.21298 35.548 6.94202 32.0075 6.76045 27.7104C6.56376 22.6417 7.80446 18.5262 10.7398 14.6074C11.8897 13.0792 14.9158 10.159 15.3546 10.159C15.4302 10.159 15.4908 12.4286 15.4908 15.1824Z" fill="#0080FF"/>
<path d="M32.1591 7.164C36.0325 8.0567 38.983 9.67567 41.6913 12.4143C43.2649 13.9879 44.551 15.7884 45.368 17.4981C47.3653 21.7044 47.7284 26.7731 46.3818 31.2215L45.9884 32.4774H42.1452C40.027 32.4774 38.287 32.432 38.287 32.3866C38.287 32.3412 38.4231 32.0991 38.6047 31.857C39.6487 30.3893 40.2993 28.0441 40.2993 25.7443C40.3145 23.6411 40.027 22.461 38.9981 20.3729C38.3172 18.9507 38.0751 18.6178 36.7134 17.2712C35.0793 15.6371 33.6268 14.7293 31.7203 14.1543C30.4947 13.776 27.8772 13.5339 25.7286 13.5945L23.9886 13.6399L23.9432 25.9561C23.913 37.5309 23.8978 38.2572 23.6558 38.1513C22.9446 37.8941 20.1001 36.0784 19.0258 35.2008C18.118 34.4746 17.6792 34.0055 17.3766 33.4003L16.9529 32.5984V19.6618V6.74035L23.8827 6.80087C30.177 6.84626 30.9184 6.89165 32.1591 7.164Z" fill="#114FFF"/>
<path d="M70.4491 16.8057C71.932 16.8057 73.3358 17.0924 74.6605 17.6657C76.005 18.2391 77.1913 19.03 78.2194 20.0383C79.2475 21.0269 80.0582 22.2033 80.6513 23.5676C81.2642 24.9121 81.5707 26.3653 81.5707 27.9272C81.5707 29.4101 81.284 30.8238 80.7106 32.1683C80.1372 33.493 79.3464 34.6694 78.338 35.6975C77.3494 36.7256 76.173 37.5462 74.8088 38.1591C73.4643 38.7522 72.0111 39.0488 70.4491 39.0488C68.9662 39.0488 67.5526 38.7621 66.2081 38.1887C64.8636 37.6154 63.6773 36.8245 62.6492 35.8161C61.6408 34.8078 60.8302 33.6314 60.2173 32.2869C59.6241 30.9227 59.3275 29.4694 59.3275 27.9272C59.3275 26.4246 59.6142 25.0109 60.1876 23.6862C60.761 22.3417 61.542 21.1653 62.5306 20.157C63.5389 19.1486 64.7153 18.3479 66.0598 17.7547C67.424 17.1616 68.8872 16.8452 70.4491 16.8057ZM70.4491 35.3416C71.4179 35.3416 72.3472 35.1538 73.2369 34.7781C74.1464 34.3827 74.9373 33.8489 75.6095 33.1766C76.3015 32.5044 76.8453 31.7234 77.2407 30.8337C77.6559 29.9242 77.8635 28.9554 77.8635 27.9272C77.8635 26.9387 77.6658 25.9995 77.2703 25.1098C76.8947 24.2003 76.3707 23.4094 75.6985 22.7372C75.0263 22.0452 74.2354 21.5014 73.3259 21.106C72.4362 20.6908 71.4772 20.4832 70.4491 20.4832C69.4605 20.4832 68.5115 20.6809 67.602 21.0764C66.7123 21.452 65.9214 21.976 65.2294 22.6482C64.5572 23.3204 64.0134 24.1113 63.5982 25.0208C63.2028 25.9303 63.0051 26.8991 63.0051 27.9272C63.0051 28.9356 63.1929 29.8846 63.5686 30.7744C63.964 31.6443 64.4978 32.4154 65.1701 33.0876C65.8423 33.7599 66.6233 34.2937 67.513 34.6892C68.4225 35.0846 69.4012 35.3021 70.4491 35.3416ZM101.91 19.6528L105.617 16.7464V39.0488L90.3438 25.436V36.1424L86.6366 39.0488V16.7464L101.91 30.7744V19.6528ZM120.91 16.776L132.062 39.0488H127.554L120.91 25.0505L114.297 39.0488H109.789L120.91 16.776ZM136.249 16.8057H139.927V36.172L136.249 39.0488V16.8057ZM153.511 16.8057C155.053 16.8452 156.496 17.1714 157.841 17.7844C159.185 18.3775 160.362 19.1783 161.37 20.1866C162.378 21.195 163.169 22.3714 163.743 23.7159C164.316 25.0406 164.603 26.4444 164.603 27.9272C164.603 29.4694 164.296 30.9227 163.683 32.2869C163.07 33.6314 162.25 34.8078 161.222 35.8161C160.194 36.8047 159.007 37.5857 157.663 38.1591C156.338 38.7325 154.954 39.029 153.511 39.0488H146.096V35.312H153.956C154.924 35.3515 155.824 35.1637 156.655 34.7485C157.505 34.3333 158.246 33.7797 158.879 33.0876C159.512 32.3759 160.006 31.5751 160.362 30.6854C160.737 29.7759 160.925 28.8565 160.925 27.9272C160.925 26.998 160.737 26.0885 160.362 25.1987C160.006 24.2893 159.512 23.4885 158.879 22.7965C158.266 22.1045 157.534 21.5509 156.684 21.1357C155.834 20.7205 154.924 20.5227 153.956 20.5425H146.096V16.8057H153.511ZM179.666 16.8057C181.149 16.8057 182.553 17.0924 183.878 17.6657C185.222 18.2391 186.409 19.03 187.437 20.0383C188.465 21.0269 189.275 22.2033 189.869 23.5676C190.482 24.9121 190.788 26.3653 190.788 27.9272C190.788 29.4101 190.501 30.8238 189.928 32.1683C189.355 33.493 188.564 34.6694 187.555 35.6975C186.567 36.7256 185.39 37.5462 184.026 38.1591C182.682 38.7522 181.228 39.0488 179.666 39.0488C178.184 39.0488 176.77 38.7621 175.425 38.1887C174.081 37.6154 172.895 36.8245 171.867 35.8161C170.858 34.8078 170.048 33.6314 169.435 32.2869C168.841 30.9227 168.545 29.4694 168.545 27.9272C168.545 26.4246 168.832 25.0109 169.405 23.6862C169.978 22.3417 170.759 21.1653 171.748 20.157C172.756 19.1486 173.933 18.3479 175.277 17.7547C176.641 17.1616 178.104 16.8452 179.666 16.8057ZM179.666 35.3416C180.635 35.3416 181.565 35.1538 182.454 34.7781C183.364 34.3827 184.155 33.8489 184.827 33.1766C185.519 32.5044 186.063 31.7234 186.458 30.8337C186.873 29.9242 187.081 28.9554 187.081 27.9272C187.081 26.9387 186.883 25.9995 186.488 25.1098C186.112 24.2003 185.588 23.4094 184.916 22.7372C184.244 22.0452 183.453 21.5014 182.543 21.106C181.653 20.6908 180.695 20.4832 179.666 20.4832C178.678 20.4832 177.729 20.6809 176.819 21.0764C175.93 21.452 175.139 21.976 174.447 22.6482C173.774 23.3204 173.231 24.1113 172.816 25.0208C172.42 25.9303 172.222 26.8991 172.222 27.9272C172.222 28.9356 172.41 29.8846 172.786 30.7744C173.181 31.6443 173.715 32.4154 174.387 33.0876C175.06 33.7599 175.841 34.2937 176.73 34.6892C177.64 35.0846 178.619 35.3021 179.666 35.3416ZM212.729 35.6975C211.681 36.7256 210.485 37.5363 209.14 38.1294C207.796 38.7028 206.392 38.9895 204.929 38.9895C203.486 38.9895 202.092 38.7028 200.747 38.1294C199.423 37.5363 198.246 36.7355 197.218 35.7272C196.19 34.7188 195.369 33.5424 194.757 32.1979C194.144 30.8534 193.837 29.42 193.837 27.8976C193.837 26.4542 194.124 25.0702 194.697 23.7455C195.29 22.4011 196.091 21.2148 197.099 20.1866C198.108 19.1585 199.284 18.338 200.629 17.7251C201.973 17.1121 203.407 16.8057 204.929 16.8057C206.392 16.8057 207.796 17.1022 209.14 17.6954C210.485 18.2688 211.681 19.0695 212.729 20.0977L210.267 22.5592C209.457 21.9463 208.616 21.452 207.747 21.0764C206.896 20.6809 205.957 20.4832 204.929 20.4832C203.901 20.4832 202.932 20.6809 202.023 21.0764C201.133 21.452 200.352 21.976 199.68 22.6482C199.027 23.3204 198.503 24.1113 198.108 25.0208C197.732 25.9105 197.544 26.8695 197.544 27.8976C197.544 28.9257 197.732 29.8945 198.108 30.804C198.503 31.6937 199.027 32.4747 199.68 33.147C200.352 33.7994 201.133 34.3234 202.023 34.7188C202.932 35.0945 203.901 35.2823 204.929 35.2823C205.957 35.2823 206.886 35.0945 207.717 34.7188C208.547 34.3432 209.269 33.8489 209.882 33.2359L212.729 35.6975ZM225.674 25.8809C225.832 25.9006 226.099 25.9402 226.475 25.9995C226.87 26.0588 227.305 26.1774 227.78 26.3554C228.274 26.5136 228.778 26.7311 229.292 27.0079C229.806 27.2847 230.271 27.6702 230.686 28.1645C231.101 28.639 231.447 29.2223 231.724 29.9143C232.001 30.6063 232.139 31.4367 232.139 32.4055C232.139 32.4451 232.12 32.6428 232.08 32.9987C232.06 33.3348 231.971 33.75 231.813 34.2443C231.655 34.7386 231.418 35.2625 231.101 35.8161C230.785 36.3697 230.33 36.8937 229.737 37.388C229.144 37.8625 228.393 38.2579 227.483 38.5743C226.593 38.8906 225.496 39.0488 224.191 39.0488C222.985 39.0488 221.838 38.8017 220.751 38.3074C219.683 37.7933 218.764 37.0914 217.993 36.2017L221.018 33.8587C221.018 33.8785 221.087 33.9675 221.225 34.1257C221.384 34.2838 221.601 34.4519 221.878 34.6298C222.174 34.8078 222.54 34.9758 222.975 35.134C223.43 35.2724 223.964 35.3416 224.577 35.3416C225.704 35.3416 226.584 35.0549 227.216 34.4816C227.849 33.8884 228.165 33.1964 228.165 32.4055C228.165 31.8321 228.047 31.3675 227.809 31.0116C227.572 30.636 227.246 30.3394 226.831 30.1219C226.435 29.8846 225.971 29.7067 225.437 29.5881C224.923 29.4497 224.369 29.3211 223.776 29.2025C223.618 29.1827 223.351 29.1333 222.975 29.0542C222.619 28.9751 222.214 28.8466 221.759 28.6687C221.324 28.4907 220.86 28.2634 220.365 27.9866C219.891 27.69 219.456 27.3242 219.06 26.8892C218.685 26.4345 218.368 25.9006 218.111 25.2877C217.854 24.655 217.726 23.9136 217.726 23.0634C217.726 23.0239 217.736 22.8459 217.755 22.5296C217.795 22.1935 217.884 21.798 218.022 21.3433C218.181 20.8687 218.418 20.3646 218.734 19.8307C219.07 19.2969 219.535 18.8125 220.128 18.3775C220.721 17.9228 221.463 17.5471 222.352 17.2505C223.262 16.954 224.369 16.8057 225.674 16.8057C226.88 16.8057 228.027 17.0627 229.114 17.5768C230.202 18.0908 231.131 18.7927 231.902 19.6824L228.877 22.0254C228.66 21.6497 228.353 21.363 227.958 21.1653C227.562 20.9478 227.167 20.7897 226.771 20.6908C226.297 20.5919 225.793 20.5326 225.259 20.5129C224.132 20.5129 223.252 20.7402 222.619 21.195C221.987 21.63 221.67 22.2528 221.67 23.0634C221.67 23.6368 221.769 24.0915 221.967 24.4277C222.165 24.744 222.431 24.9911 222.768 25.1691C223.124 25.347 223.549 25.4854 224.043 25.5843C224.537 25.6634 225.081 25.7622 225.674 25.8809Z" fill="black"/>
</svg>
