<svg width="22" height="22" viewBox="0 0 22 22" fill="none" xmlns="http://www.w3.org/2000/svg">
<g clip-path="url(#clip0_778_174)">
<path d="M17.4166 1.83331C18.9354 1.83331 20.1666 3.06453 20.1666 4.58331V17.4166C20.1666 18.9354 18.9354 20.1666 17.4166 20.1666H4.58331C3.06453 20.1666 1.83331 18.9354 1.83331 17.4166V4.58331C1.83331 3.06453 3.06453 1.83331 4.58331 1.83331H17.4166ZM17.4166 3.20831H4.58331C3.85104 3.20831 3.25247 3.78073 3.21065 4.50252L3.20831 4.58331V17.4166C3.20831 18.1489 3.78073 18.7475 4.50252 18.7893L4.58331 18.7916H17.4166C18.1489 18.7916 18.7475 18.2192 18.7893 17.4974L18.7916 17.4166V4.58331C18.7916 3.85104 18.2192 3.25247 17.4974 3.21065L17.4166 3.20831ZM11.5041 6.59998L11.5037 10.0833H14.9875C15.0887 10.0833 15.1708 10.1654 15.1708 10.2666V11.275C15.1708 11.3762 15.0887 11.4583 14.9875 11.4583H11.5037L11.5041 14.9416C11.5042 15.0429 11.4221 15.125 11.3208 15.125C11.3208 15.125 11.3208 15.125 11.3208 15.125H10.3125C10.2112 15.125 10.1292 15.0429 10.1291 14.9416L10.1287 11.4583H6.64581C6.54456 11.4583 6.46248 11.3762 6.46248 11.275V10.2666C6.46248 10.1654 6.54456 10.0833 6.64581 10.0833H10.1287L10.1291 6.59998C10.1292 6.49874 10.2112 6.41667 10.3125 6.41665H11.3208C11.4221 6.41662 11.5041 6.4987 11.5041 6.59996C11.5041 6.59996 11.5041 6.59997 11.5041 6.59998Z" fill="#999999"/>
</g>
<defs>
<clipPath id="clip0_778_174">
<rect width="22" height="22" fill="white"/>
</clipPath>
</defs>
</svg>
